<svg width="72" height="72" viewBox="0 0 72 72" fill="none" xmlns="http://www.w3.org/2000/svg">
<path d="M45.044 57.9554H26.9572C24.2593 57.9554 21.6716 56.8846 19.7638 54.9749C17.854 53.0673 16.7832 50.4797 16.7832 47.7814V27.4338C16.7832 24.7358 17.854 22.1482 19.7638 20.2404C21.6714 18.3306 24.259 17.2598 26.9572 17.2598H45.044C47.742 17.2598 50.3296 18.3306 52.2374 20.2404C54.1472 22.1479 55.218 24.7355 55.218 27.4338V47.7814C55.218 50.4794 54.1472 53.067 52.2374 54.9749C50.3299 56.8846 47.7423 57.9554 45.044 57.9554ZM26.9572 19.5211C22.5879 19.5211 19.0443 23.0647 19.0443 27.434V47.7816C19.0443 52.151 22.5879 55.6946 26.9572 55.6946H45.044C49.4134 55.6946 52.957 52.151 52.957 47.7816V27.434C52.957 25.3344 52.1224 23.323 50.6387 21.8393C49.155 20.3557 47.1436 19.5211 45.044 19.5211H26.9572Z" fill="black"/>
<path d="M29.2168 28H31.4776V46.0868H29.2168V28Z" fill="black"/>
<path d="M40.5215 28H42.7823V46.0868H40.5215V28Z" fill="black"/>
<path d="M23.5645 32.5215H25.8253V41.5649H23.5645V32.5215Z" fill="black"/>
<path d="M46.1738 32.5215H48.4347V41.5649H46.1738V32.5215Z" fill="black"/>
<path d="M34.8691 33.6523H37.13V40.4349H34.8691V33.6523Z" fill="black"/>
<path d="M19.0434 42.1292H13.3913C11.519 42.1292 10 40.6102 10 38.7379V33.651C10 31.7788 11.519 30.2598 13.3913 30.2598H19.0434V42.1292ZM13.3913 32.5206C12.7664 32.5206 12.2608 33.0262 12.2608 33.651V38.7379C12.2608 39.0382 12.3801 39.3252 12.592 39.5372C12.804 39.7492 13.091 39.8684 13.3913 39.8684H16.7826V32.5206L13.3913 32.5206Z" fill="black"/>
<path d="M58.6091 42.1292H52.957V30.2598H58.6091C60.4814 30.2598 62.0004 31.7788 62.0004 33.651V38.7379C62.0004 40.6102 60.4814 42.1292 58.6091 42.1292ZM55.2179 39.8684H58.6091C58.9094 39.8684 59.1965 39.7491 59.4084 39.5372C59.6204 39.3252 59.7396 39.0382 59.7396 38.7379V33.651C59.7396 33.3507 59.6204 33.0637 59.4084 32.8517C59.1965 32.6398 58.9094 32.5206 58.6091 32.5206H55.2179V39.8684Z" fill="black"/>
<path d="M12.8262 15H15.087V31.3911H12.8262V15Z" fill="black"/>
<path d="M56.9141 15H59.1749V31.3911H56.9141V15Z" fill="black"/>
</svg>
