<svg width="73" height="72" viewBox="0 0 73 72" fill="none" xmlns="http://www.w3.org/2000/svg">
<path fill-rule="evenodd" clip-rule="evenodd" d="M51.0001 43.1387C49.9721 43.1387 49.1386 43.9719 49.1386 45C49.1386 46.0281 49.9721 46.8613 51.0001 46.8613C52.0279 46.8613 52.8614 46.0281 52.8614 45C52.8614 43.9719 52.0279 43.1387 51.0001 43.1387ZM47 45C47 42.7909 48.7909 41 51.0001 41C53.2091 41 55 42.7909 55 45C55 47.2093 53.2091 49 51.0001 49C48.7909 49 47 47.2093 47 45Z" fill="black"/>
<path fill-rule="evenodd" clip-rule="evenodd" d="M45.9561 35.7192C45.9561 34.361 47.0573 33.2598 48.4158 33.2598H53.872C55.2305 33.2598 56.3315 34.361 56.3315 35.7192V36.0093L56.583 35.8643C57.7592 35.185 59.2636 35.5882 59.9428 36.7647L62.6708 41.4898C63.35 42.6661 62.9469 44.1704 61.7707 44.8497L61.5192 44.9947L61.7707 45.1398C62.9469 45.819 63.35 47.3234 62.6708 48.4996L59.9428 53.2248C59.2636 54.4013 57.7592 54.8044 56.583 54.1252L56.3315 53.9802V54.2705C56.3315 55.6287 55.2305 56.73 53.872 56.73H48.4158C47.0573 56.73 45.9561 55.6287 45.9561 54.2705V53.9802L45.7049 54.1252C44.5284 54.8044 43.0243 54.4013 42.345 53.2248L39.6171 48.4996C38.9378 47.3234 39.3409 45.819 40.5172 45.1398L40.7684 44.9947L40.5172 44.8497C39.3409 44.1704 38.9378 42.6661 39.6171 41.4898L42.345 36.7647C43.0243 35.5882 44.5286 35.185 45.7049 35.8643L45.9561 36.0093V35.7192ZM48.6928 35.9965V38.3793C48.6928 38.8684 48.432 39.3199 48.0086 39.5646C47.5853 39.809 47.0636 39.809 46.6403 39.5646L44.5765 38.373L42.1255 42.6182L44.1893 43.8097C44.6126 44.0541 44.8735 44.506 44.8735 44.9947C44.8735 45.4835 44.6126 45.9353 44.1893 46.1797L42.1255 47.3713L44.5765 51.6165L46.6403 50.4249C47.0636 50.1805 47.5853 50.1805 48.0086 50.4249C48.432 50.6693 48.6928 51.1211 48.6928 51.6099V53.9933H53.5948V51.6099C53.5948 51.1211 53.8556 50.6693 54.279 50.4249C54.7023 50.1805 55.2239 50.1805 55.6473 50.4249L57.7113 51.6165L60.1623 47.3713L58.0983 46.1797C57.6749 45.9353 57.4141 45.4835 57.4141 44.9947C57.4141 44.506 57.6749 44.0541 58.0983 43.8097L60.1623 42.6182L57.7113 38.373L55.6473 39.5646C55.2239 39.809 54.7023 39.809 54.279 39.5646C53.8556 39.3199 53.5948 38.8684 53.5948 38.3793V35.9965H48.6928ZM60.3008 42.8582C60.3008 42.8579 60.3011 42.8585 60.3008 42.8582V42.8582Z" fill="black"/>
<path fill-rule="evenodd" clip-rule="evenodd" d="M11 21.7197C11 18.5608 13.5608 16 16.7197 16H51.5308C54.6898 16 57.2505 18.5608 57.2505 21.7197V37.1012C57.2505 37.8568 56.6381 38.4696 55.8822 38.4696C55.1266 38.4696 54.5138 37.8568 54.5138 37.1012V21.7197C54.5138 20.0723 53.1783 18.7367 51.5308 18.7367H16.7197C15.0722 18.7367 13.7367 20.0723 13.7367 21.7197V40.5757C13.7367 42.2232 15.0722 43.5587 16.7197 43.5587H18.8954C20.8528 43.5587 22.4395 45.1455 22.4395 47.1028V50.7472L27.0568 45.8239C28.4123 44.3786 30.3053 43.5587 32.2869 43.5587H42.4721C43.2277 43.5587 43.8404 44.1715 43.8404 44.9271C43.8404 45.6829 43.2277 46.2954 42.4721 46.2954H32.2869C31.0616 46.2954 29.8911 46.8025 29.053 47.6961L22.0692 55.1424C21.6851 55.552 21.0899 55.6853 20.5678 55.4787C20.0457 55.2724 19.7028 54.7677 19.7028 54.2064V47.1028C19.7028 46.6569 19.3413 46.2954 18.8954 46.2954H16.7197C13.5608 46.2954 11 43.7347 11 40.5757V21.7197Z" fill="black"/>
<path d="M27.5975 31.5116C27.5975 32.7133 26.6234 33.6873 25.4218 33.6873C24.2202 33.6873 23.2461 32.7133 23.2461 31.5116C23.2461 30.3099 24.2202 29.3359 25.4218 29.3359C26.6234 29.3359 27.5975 30.3099 27.5975 31.5116Z" fill="black"/>
<path d="M36.2986 31.5116C36.2986 32.7133 35.3244 33.6873 34.1229 33.6873C32.9213 33.6873 31.9473 32.7133 31.9473 31.5116C31.9473 30.3099 32.9213 29.3359 34.1229 29.3359C35.3244 29.3359 36.2986 30.3099 36.2986 31.5116Z" fill="black"/>
<path d="M45.0057 31.5116C45.0057 32.7133 44.0317 33.6873 42.83 33.6873C41.6283 33.6873 40.6543 32.7133 40.6543 31.5116C40.6543 30.3099 41.6283 29.3359 42.83 29.3359C44.0317 29.3359 45.0057 30.3099 45.0057 31.5116Z" fill="black"/>
</svg>
