<svg width="72" height="72" viewBox="0 0 72 72" fill="none" xmlns="http://www.w3.org/2000/svg">
<path d="M67.0356 32.453C66.0864 30.16 64.2153 28.4725 61.9184 27.7577C62.0746 27.1483 62.1606 26.5038 62.1606 25.8632C62.1606 21.7773 58.9184 18.4413 54.8872 18.2734C53.4966 13.9882 49.4653 11 44.8562 11C41.0359 11 37.6882 13.0508 35.8367 16.1055C33.9851 13.0547 30.6375 11 26.8172 11C22.2078 11 18.1766 13.9883 16.7862 18.2734C12.7432 18.4414 9.51278 21.7773 9.51278 25.8632C9.51278 26.5038 9.59872 27.1366 9.75497 27.7577C7.46977 28.4725 5.59877 30.1679 4.63777 32.453C3.22757 35.8436 4.22761 39.6444 6.93077 41.9178C5.44637 44.5897 5.38387 47.8553 6.85655 50.6248C8.89955 54.4686 13.2785 56.2654 17.3216 55.1521C19.0482 58.7732 22.6887 61.1209 26.8176 61.1209C30.6497 61.1209 33.9974 59.0584 35.8489 55.9959C37.6926 59.0584 41.048 61.1209 44.8801 61.1209C49.0051 61.1209 52.6495 58.785 54.3761 55.1521C58.4191 56.2693 62.7981 54.4685 64.8412 50.6248C66.3139 47.8553 66.2514 44.5936 64.7669 41.9178C67.4739 39.6444 68.4739 35.8436 67.0599 32.453H67.0356ZM26.8056 58.055C23.4892 58.055 20.6142 55.9183 19.6572 52.7503C19.5322 52.3206 19.2158 51.973 18.8056 51.7933C18.3955 51.6136 17.9306 51.6253 17.5204 51.8128C14.5829 53.223 11.079 52.0745 9.53993 49.18C8.38373 47.012 8.65712 44.3792 10.2118 42.4847C10.2313 42.4535 10.2548 42.4339 10.2743 42.3988C10.7587 41.7269 10.622 40.7972 9.96962 40.2933C9.85243 40.2073 9.73915 40.137 9.61025 40.0823C7.36805 38.7776 6.44225 36.0315 7.44225 33.6175C8.21178 31.7659 9.92665 30.555 11.9266 30.4261C12.1376 30.4144 12.3368 30.3636 12.5282 30.2699C12.9071 30.0785 13.1923 29.7425 13.3055 29.3324C13.4227 28.9222 13.3681 28.4886 13.1571 28.1215C12.7587 27.4379 12.5477 26.6488 12.5477 25.8481C12.5477 23.352 14.5789 21.3208 17.075 21.3208C17.2977 21.3208 17.5047 21.3403 17.7157 21.3716C18.5243 21.4887 19.286 20.9419 19.4305 20.1411C20.0945 16.6138 23.1883 14.0552 26.7899 14.0552C30.9149 14.0552 34.2743 17.4146 34.2743 21.5396V32.3716H30.2431L27.5595 29.688C28.4852 27.8442 28.2001 25.5513 26.6649 24.0161C24.7508 22.102 21.6337 22.102 19.7157 24.0161C17.8016 25.9302 17.8016 29.0473 19.7157 30.9653C20.6728 31.9223 21.9266 32.395 23.1884 32.395C23.9462 32.395 24.6923 32.1957 25.3876 31.8481L28.5126 34.9731C28.7978 35.2582 29.1845 35.4262 29.5985 35.4262H34.2704V38.016H29.5985C29.1884 38.016 28.7978 38.1722 28.5126 38.4691L25.5243 41.4574C24.9032 41.1723 24.2196 41.0043 23.4931 41.0043C20.7861 41.0043 18.579 43.2035 18.579 45.9184C18.579 48.6332 20.7782 50.8325 23.4931 50.8325C26.208 50.8325 28.4072 48.6333 28.4072 45.9184C28.4072 45.0551 28.165 44.2543 27.7744 43.5512L30.2392 41.0864H34.29V49.9302C34.2705 50.0552 34.2471 50.1841 34.2471 50.3208C34.2471 50.395 34.2471 50.4693 34.2588 50.563C34.2588 54.688 30.8994 58.0357 26.7744 58.0357L26.8056 58.055ZM21.9111 28.813C21.1845 28.0864 21.1845 26.9185 21.9111 26.2036C22.2705 25.8442 22.7431 25.6684 23.2158 25.6684C23.6885 25.6684 24.165 25.8481 24.5205 26.2036C25.2353 26.9302 25.247 28.0981 24.5205 28.813C23.7939 29.5278 22.626 29.5278 21.9111 28.813ZM25.3759 45.938C25.3759 46.9575 24.5439 47.7896 23.5243 47.7896C22.5047 47.7896 21.6727 46.9576 21.6727 45.938C21.6727 44.9184 22.5047 44.0864 23.5243 44.0864C24.5439 44.0864 25.3759 44.9184 25.3759 45.938ZM61.9969 40.106C61.8797 40.1568 61.7742 40.2232 61.6805 40.2974C61.0281 40.8013 60.8914 41.7388 61.3758 42.4146C61.407 42.4576 61.4266 42.4888 61.4617 42.5201C62.9969 44.4146 63.2508 47.024 62.1141 49.1842C60.5789 52.067 57.0829 53.2272 54.1336 51.817C53.7351 51.6256 53.2586 51.6178 52.8484 51.7975C52.4382 51.9771 52.1335 52.3248 51.9968 52.7545C51.0398 55.9225 48.1648 58.0592 44.8484 58.0592C40.7234 58.0592 37.364 54.6998 37.3757 50.5436V50.3326C37.3757 50.2467 37.3757 50.1764 37.364 50.0905V41.1021H41.3952L44.0788 43.7857C43.7311 44.4576 43.5319 45.2076 43.5319 45.985C43.5319 47.3013 44.0475 48.5318 44.9733 49.4576C45.8991 50.3834 47.1295 50.8991 48.446 50.8991C49.7625 50.8991 50.9929 50.3834 51.9187 49.4576C52.8445 48.5319 53.3601 47.3015 53.3601 45.985C53.3601 44.6684 52.8445 43.438 51.9187 42.5122C50.9929 41.5864 49.7625 41.0709 48.446 41.0709C47.6687 41.0709 46.9187 41.2701 46.2468 41.6177L43.1218 38.4927C42.8367 38.2076 42.4499 38.0396 42.0359 38.0396H37.364V35.4498H42.0359C42.4461 35.4498 42.8367 35.2935 43.1218 34.9967L46.1101 32.0084C46.7312 32.2935 47.4148 32.4615 48.1413 32.4615C50.8483 32.4615 53.0554 30.2623 53.0554 27.5474C53.0554 24.8325 50.8562 22.6333 48.1413 22.6333C45.4265 22.6333 43.2272 24.8325 43.2272 27.5474C43.2272 28.4107 43.4694 29.2115 43.86 29.9146L41.3952 32.3794H37.3522V21.5354C37.3522 17.4104 40.7116 14.051 44.8366 14.051C48.4382 14.051 51.5319 16.6096 52.196 20.1369C52.3445 20.9377 53.1023 21.4846 53.9108 21.3674C54.1218 21.3362 54.3327 21.3166 54.5514 21.3166C57.0475 21.3166 59.0787 23.3478 59.0787 25.8439C59.0787 26.6447 58.8678 27.4337 58.4694 28.1173C58.2584 28.4845 58.2076 28.9181 58.3209 29.3282C58.4381 29.7384 58.7311 30.0743 59.11 30.2657C59.3014 30.3595 59.5006 30.4142 59.7115 30.422C61.7115 30.5392 63.4263 31.7579 64.1959 33.6134C65.2076 36.0353 64.2467 38.8048 61.985 40.0978L61.9969 40.106ZM48.4619 44.1372C48.958 44.1372 49.4189 44.3286 49.7666 44.6841C50.1143 45.0435 50.3017 45.4927 50.3017 45.9888C50.3017 46.4849 50.1103 46.9458 49.7549 47.2935C49.0596 47.9888 47.8408 47.9888 47.1455 47.2935C46.7978 46.9458 46.6103 46.4849 46.6103 45.9888C46.6103 45.4927 46.8017 45.0318 47.1455 44.6841C47.4931 44.3364 47.9541 44.1489 48.4502 44.1489L48.4619 44.1372ZM46.3057 27.5472C46.3057 26.5277 47.1377 25.6956 48.1573 25.6956C49.1768 25.6956 50.0089 26.5276 50.0089 27.5472C50.0089 28.5668 49.1769 29.3988 48.1573 29.3988C47.1378 29.3988 46.3057 28.5668 46.3057 27.5472Z" fill="black"/>
</svg>
