<svg width="72" height="72" viewBox="0 0 72 72" fill="none" xmlns="http://www.w3.org/2000/svg">
<path d="M15.1242 43.9346C15.2659 44.1001 15.4403 44.2345 15.6364 44.3294C15.8325 44.4243 16.0462 44.4776 16.2639 44.486C16.4816 44.4944 16.6987 44.4577 16.9016 44.3783C17.1044 44.2988 17.2887 44.1782 17.4427 44.0242C17.5968 43.8701 17.7173 43.6859 17.7968 43.483C17.8763 43.2801 17.913 43.063 17.9046 42.8453C17.8962 42.6276 17.8428 42.414 17.7479 42.2179C17.6531 42.0217 17.5187 41.8473 17.3532 41.7056L15.3139 39.6584H29.8815C30.168 40.7488 30.7391 41.7435 31.5363 42.5407C32.3335 43.3379 33.3282 43.909 34.4185 44.1955V59.4191C34.4185 59.8384 34.5851 60.2405 34.8816 60.537C35.178 60.8334 35.5801 61 35.9994 61C36.4187 61 36.8208 60.8334 37.1172 60.537C37.4137 60.2405 37.5803 59.8384 37.5803 59.4191V44.1955C38.6707 43.909 39.6654 43.3379 40.4626 42.5407C41.2598 41.7435 41.8308 40.7488 42.1173 39.6584H56.685L54.6456 41.7056C54.4802 41.8473 54.3458 42.0217 54.2509 42.2179C54.156 42.414 54.1027 42.6276 54.0942 42.8453C54.0858 43.063 54.1225 43.2801 54.202 43.483C54.2815 43.6859 54.402 43.8701 54.5561 44.0242C54.7102 44.1782 54.8944 44.2988 55.0973 44.3783C55.3001 44.4577 55.5172 44.4944 55.7349 44.486C55.9527 44.4776 56.1663 44.4243 56.3624 44.3294C56.5585 44.2345 56.7329 44.1001 56.8747 43.9346L61.6172 39.192C61.9117 38.8958 62.0769 38.4952 62.0769 38.0775C62.0769 37.6599 61.9117 37.2592 61.6172 36.963L56.8747 32.2204C56.5722 31.9615 56.1832 31.8261 55.7854 31.8415C55.3875 31.8569 55.0101 32.0218 54.7285 32.3033C54.447 32.5849 54.2821 32.9623 54.2667 33.3602C54.2513 33.758 54.3867 34.147 54.6456 34.4495L56.685 36.4967H42.1173C41.968 35.9248 41.7391 35.3767 41.4376 34.8684L51.808 24.5375V27.4463C51.808 27.8655 51.9746 28.2676 52.271 28.5641C52.5675 28.8606 52.9696 29.0271 53.3889 29.0271C53.8081 29.0271 54.2102 28.8606 54.5067 28.5641C54.8032 28.2676 54.9697 27.8655 54.9697 27.4463V20.6881C54.972 20.4787 54.9326 20.271 54.8539 20.0769C54.7752 19.8829 54.6587 19.7064 54.5113 19.5578C54.2116 19.2647 53.8079 19.1027 53.3889 19.1072H46.6781C46.2588 19.1072 45.8567 19.2738 45.5603 19.5702C45.2638 19.8667 45.0973 20.2688 45.0973 20.6881C45.0973 21.1073 45.2638 21.5094 45.5603 21.8059C45.8567 22.1024 46.2588 22.2689 46.6781 22.2689H49.5711L39.2086 32.6394C38.7002 32.3378 38.1521 32.109 37.5803 31.9596V17.392L39.6275 19.4313C39.9299 19.6903 40.3189 19.8256 40.7168 19.8102C41.1146 19.7949 41.4921 19.6299 41.7736 19.3484C42.0551 19.0669 42.2201 18.6894 42.2354 18.2916C42.2508 17.8937 42.1155 17.5047 41.8565 17.2023L37.1139 12.4597C36.8177 12.1653 36.417 12 35.9994 12C35.5818 12 35.1811 12.1653 34.8849 12.4597L30.1423 17.2023C29.8833 17.5047 29.748 17.8937 29.7634 18.2916C29.7787 18.6894 29.9437 19.0669 30.2252 19.3484C30.5068 19.6299 30.8842 19.7949 31.282 19.8102C31.6799 19.8256 32.0689 19.6903 32.3713 19.4313L34.4185 17.392V31.9596C33.8467 32.109 33.2986 32.3378 32.7903 32.6394L22.4277 22.2689H25.3207C25.74 22.2689 26.1421 22.1024 26.4385 21.8059C26.735 21.5094 26.9016 21.1073 26.9016 20.6881C26.9016 20.2688 26.735 19.8667 26.4385 19.5702C26.1421 19.2738 25.74 19.1072 25.3207 19.1072H18.61C18.1907 19.1072 17.7886 19.2738 17.4921 19.5702C17.1956 19.8667 17.0291 20.2688 17.0291 20.6881V27.3988C17.0291 27.8181 17.1956 28.2202 17.4921 28.5167C17.7886 28.8131 18.1907 28.9797 18.61 28.9797C19.0292 28.9797 19.4313 28.8131 19.7278 28.5167C20.0243 28.2202 20.1908 27.8181 20.1908 27.3988V24.5059L30.5612 34.8684C30.2597 35.3767 30.0309 35.9248 29.8815 36.4967H15.3139L17.3532 34.4495C17.6122 34.147 17.7475 33.758 17.7321 33.3602C17.7168 32.9623 17.5518 32.5849 17.2703 32.3033C16.9887 32.0218 16.6113 31.8569 16.2135 31.8415C15.8156 31.8261 15.4266 31.9615 15.1242 32.2204L10.3816 36.963C10.0871 37.2592 9.92188 37.6599 9.92188 38.0775C9.92188 38.4952 10.0871 38.8958 10.3816 39.192L15.1242 43.9346ZM35.9994 34.9158C36.6247 34.9158 37.236 35.1012 37.756 35.4487C38.2759 35.7961 38.6812 36.2899 38.9205 36.8676C39.1598 37.4453 39.2224 38.081 39.1004 38.6944C38.9784 39.3077 38.6773 39.871 38.2351 40.3132C37.7929 40.7554 37.2295 41.0565 36.6162 41.1785C36.0029 41.3005 35.3672 41.2379 34.7895 40.9986C34.2117 40.7593 33.7179 40.354 33.3705 39.8341C33.0231 39.3142 32.8377 38.7029 32.8377 38.0775C32.8377 37.239 33.1708 36.4348 33.7637 35.8419C34.3567 35.2489 35.1609 34.9158 35.9994 34.9158Z" fill="black"/>
</svg>
