<svg width="73" height="72" viewBox="0 0 73 72" fill="none" xmlns="http://www.w3.org/2000/svg">
<path d="M59.5153 49.8598C57.5031 49.8598 55.7977 51.1945 55.2377 53.0251H48.0966V43.8589H51.9625C51.9983 43.8589 52.0341 43.8589 52.0699 43.8563C52.1108 43.8589 52.1491 43.8589 52.19 43.8589C59.7814 43.8589 65.9584 37.6816 65.9584 30.0905C65.9584 22.4994 59.7811 16.3222 52.19 16.3222C50.7787 16.3222 49.3699 16.542 48.0275 16.969C45.0309 12.758 40.1985 10.2266 34.9215 10.2266C27.8518 10.2266 21.703 14.8595 19.5934 21.3872C19.1715 21.3386 18.7471 21.3156 18.3201 21.3156C12.1045 21.3156 7.04688 26.373 7.04688 32.5889C7.04688 38.8045 12.1043 43.8621 18.3201 43.8621H24.9088V53.0284H17.7677C17.2052 51.1977 15.5024 49.863 13.4901 49.863C11.0228 49.863 9.01568 51.8701 9.01568 54.3374C9.01568 56.8047 11.0228 58.8118 13.4901 58.8118C15.5023 58.8118 17.2077 57.4772 17.7677 55.6465H26.2179C26.9415 55.6465 27.5269 55.061 27.5269 54.3374V43.8621H35.1923V59.6399C33.3616 60.2024 32.027 61.9052 32.027 63.9175C32.027 66.3848 34.0341 68.3919 36.5014 68.3919C38.9687 68.3919 40.9758 66.3848 40.9758 63.9175C40.9758 61.9053 39.6411 60.1999 37.8105 59.6399V43.8621H45.4759V54.3374C45.4759 55.061 46.0614 55.6465 46.785 55.6465H55.2352C55.7977 57.4772 57.5005 58.8118 59.5128 58.8118C61.9801 58.8118 63.9872 56.8047 63.9872 54.3374C63.9872 51.8701 61.9801 49.863 59.5128 49.863L59.5153 49.8598ZM13.4876 56.1931C12.4649 56.1931 11.6314 55.3596 11.6314 54.3369C11.6314 53.3141 12.4649 52.4806 13.4876 52.4806C14.5104 52.4806 15.3439 53.3141 15.3439 54.3369C15.3439 55.3596 14.5104 56.1931 13.4876 56.1931ZM38.3577 63.9174C38.3577 64.9401 37.5242 65.7736 36.5015 65.7736C35.4788 65.7736 34.6453 64.9401 34.6453 63.9174C34.6453 62.8946 35.4788 62.0611 36.5015 62.0611C37.5242 62.0611 38.3577 62.8946 38.3577 63.9174ZM9.66509 32.5889C9.66509 27.8102 13.5387 23.9338 18.3201 23.9338C19.463 23.9338 20.5523 24.1614 21.552 24.5628C22.4187 17.9506 28.0718 12.8451 34.9217 12.8451C40.1811 12.8451 44.732 15.8571 46.9568 20.2474C48.5165 19.4164 50.2961 18.9408 52.1881 18.9408C58.3449 18.9408 63.3383 23.9317 63.3383 30.091C63.3383 36.2478 58.3474 41.2412 52.1881 41.2412C52.1114 41.2412 52.0372 41.231 51.9605 41.231V41.2412H18.3202C13.5415 41.2412 9.66512 37.3676 9.66512 32.5861L9.66509 32.5889ZM59.5153 56.1931C58.4925 56.1931 57.659 55.3596 57.659 54.3369C57.659 53.3141 58.4925 52.4806 59.5153 52.4806C60.538 52.4806 61.3715 53.3141 61.3715 54.3369C61.3715 55.3596 60.538 56.1931 59.5153 56.1931Z" fill="black"/>
</svg>
