<svg width="73" height="72" viewBox="0 0 73 72" fill="none" xmlns="http://www.w3.org/2000/svg">
<path d="M23.5391 56.8791C25.1056 56.8791 26.6368 56.4146 27.9393 55.5443C29.2417 54.674 30.2568 53.4371 30.8563 51.9899C31.4557 50.5427 31.6126 48.9503 31.307 47.4139C31.0014 45.8776 30.2471 44.4664 29.1394 43.3588C28.0318 42.2511 26.6206 41.4968 25.0843 41.1912C23.5479 40.8857 21.9555 41.0425 20.5083 41.6419C19.0611 42.2414 17.8242 43.2565 16.9539 44.559C16.0836 45.8614 15.6191 47.3926 15.6191 48.9591C15.6191 51.0596 16.4536 53.0741 17.9389 54.5594C19.4241 56.0446 21.4386 56.8791 23.5391 56.8791ZM23.5391 45.3591C24.2512 45.3591 24.9472 45.5702 25.5392 45.9658C26.1312 46.3613 26.5926 46.9236 26.8651 47.5814C27.1376 48.2392 27.2089 48.9631 27.07 49.6614C26.9311 50.3597 26.5882 51.0012 26.0847 51.5047C25.5813 52.0081 24.9398 52.351 24.2415 52.4899C23.5431 52.6288 22.8193 52.5575 22.1615 52.285C21.5037 52.0126 20.9414 51.5511 20.5458 50.9591C20.1503 50.3671 19.9391 49.6711 19.9391 48.9591C19.9391 48.0043 20.3184 47.0886 20.9936 46.4135C21.6687 45.7383 22.5844 45.3591 23.5391 45.3591Z" fill="black" stroke="white"/>
<path d="M57.3791 23.0391C57.3791 21.4727 56.9146 19.9415 56.0443 18.639C55.174 17.3366 53.9371 16.3215 52.4899 15.722C51.0427 15.1226 49.4503 14.9657 47.9139 15.2713C46.3776 15.5769 44.9664 16.3312 43.8588 17.4389C42.7511 18.5465 41.9968 19.9577 41.6912 21.494C41.3857 23.0304 41.5425 24.6228 42.1419 26.07C42.7414 27.5172 43.7565 28.7541 45.059 29.6244C46.3614 30.4946 47.8926 30.9591 49.4591 30.9591C51.5596 30.9591 53.5741 30.1247 55.0594 28.6394C56.5446 27.1541 57.3791 25.1397 57.3791 23.0391ZM45.8591 23.0391C45.8591 22.3271 46.0702 21.6311 46.4658 21.0391C46.8613 20.4471 47.4236 19.9857 48.0814 19.7132C48.7392 19.4407 49.4631 19.3694 50.1614 19.5083C50.8597 19.6472 51.5012 19.9901 52.0047 20.4936C52.5081 20.997 52.851 21.6385 52.9899 22.3368C53.1288 23.0351 53.0575 23.759 52.785 24.4168C52.5126 25.0746 52.0511 25.6369 51.4591 26.0324C50.8671 26.428 50.1711 26.6391 49.4591 26.6391C48.5043 26.6391 47.5886 26.2599 46.9135 25.5847C46.2383 24.9096 45.8591 23.9939 45.8591 23.0391Z" fill="black" stroke="white"/>
<path d="M36.413 50.4857L44.333 58.4057L47.3858 55.3529L43.1522 51.1193H50.1793C51.2194 51.1193 52.2493 50.9144 53.2102 50.5164C54.1711 50.1184 55.0442 49.535 55.7796 48.7996C56.5151 48.0641 57.0985 47.191 57.4965 46.2301C57.8945 45.2693 58.0993 44.2394 58.0993 43.1993V35.2793H53.7794V43.1993C53.7794 44.1541 53.4001 45.0697 52.7249 45.7449C52.0498 46.42 51.1341 46.7993 50.1793 46.7993H43.1522L47.3858 42.5657L44.333 39.5129L36.413 47.4329C36.0085 47.8379 35.7812 48.3869 35.7812 48.9593C35.7812 49.5317 36.0085 50.0807 36.413 50.4857Z" fill="black" stroke="white"/>
<path d="M14.9004 28.8001V36.7202H19.2204V28.8001C19.2204 27.8454 19.5997 26.9297 20.2748 26.2546C20.9499 25.5794 21.8656 25.2002 22.8204 25.2002H29.8476L25.614 29.4338L28.6668 32.4865L36.5868 24.5665C36.9913 24.1615 37.2185 23.6126 37.2185 23.0402C37.2185 22.4677 36.9913 21.9188 36.5868 21.5137L28.6668 13.5938L25.614 16.6466L29.8476 20.8802H22.8204C20.7199 20.8802 18.7054 21.7146 17.2201 23.1999C15.7348 24.6852 14.9004 26.6996 14.9004 28.8001Z" fill="black" stroke="white"/>
</svg>
