<svg width="34" height="34" viewBox="0 0 34 34" fill="none" xmlns="http://www.w3.org/2000/svg">
<path fill-rule="evenodd" clip-rule="evenodd" d="M27.8749 15.4632L29.3278 16.9464C29.5204 17.1431 29.5204 17.4644 29.3278 17.6623L29.0956 17.8994C28.0544 18.9622 28.7904 20.779 30.2636 20.779H30.5915C30.8644 20.779 31.087 21.0062 31.087 21.2848V23.3825C31.087 23.661 30.8644 23.8883 30.5915 23.8883H30.2636C28.7904 23.8883 28.0544 25.7038 29.0956 26.7679L29.3278 27.0049C29.5204 27.2016 29.5204 27.5229 29.3278 27.7209L27.8749 29.2041C27.6822 29.4008 27.3675 29.4008 27.1736 29.2041L26.9414 28.967C25.9002 27.9041 24.1207 28.6555 24.1207 30.1594V30.4942C24.1207 30.7728 23.8981 31 23.6252 31H21.5704C21.2975 31 21.0749 30.7728 21.0749 30.4942V30.1594C21.0749 28.6555 19.2965 27.9041 18.2541 28.967L18.022 29.2041C17.8293 29.4008 17.5146 29.4008 17.3207 29.2041L15.8678 27.7209C15.6751 27.5242 15.6751 27.2029 15.8678 27.0049L16.1 26.7679C17.1411 25.705 16.4051 23.8883 14.9319 23.8883H14.604C14.3311 23.8883 14.1086 23.661 14.1086 23.3825V21.2848C14.1086 21.0062 14.3311 20.779 14.604 20.779H14.9319C16.4051 20.779 17.1411 18.9635 16.1 17.8994L15.8678 17.6623C15.6751 17.4656 15.6751 17.1443 15.8678 16.9464L17.3207 15.4632C17.5133 15.2665 17.8281 15.2665 18.022 15.4632L18.2541 15.7002C19.2953 16.7631 21.0749 16.0118 21.0749 14.5078L21.0761 14.1731C21.0761 13.8945 21.2987 13.6673 21.5716 13.6673H23.6264C23.8992 13.6673 24.1218 13.8945 24.1218 14.1731V14.5078C24.1218 16.0118 25.9002 16.7631 26.9426 15.7002L27.1748 15.4632C27.3663 15.2665 27.6822 15.2665 27.8749 15.4632ZM20.4359 22.8619L21.5214 24.0959C21.8541 24.4746 22.4381 24.4734 22.778 24.0482L24.7754 21.6695C25.0686 21.3189 25.0291 20.7923 24.6856 20.493C24.3421 20.1937 23.8263 20.234 23.5331 20.5846L22.1162 22.2718L21.653 21.7453C21.3503 21.4019 20.8332 21.3739 20.497 21.683C20.1607 21.9908 20.1343 22.5187 20.4359 22.8619ZM3.13669 13.2957C2.87459 13.5169 2.8375 13.9152 3.05411 14.1827L4.07255 15.4399C4.28916 15.7074 4.67931 15.7441 4.94019 15.5242L14.6638 7.32131L21.2125 12.846C21.3261 12.8142 21.447 12.7971 21.5715 12.7971H23.6263C24.3695 12.7971 24.975 13.4153 24.975 14.174V14.5087C24.975 14.8349 25.1378 15.1 25.419 15.2393L26.2747 14.1837C26.4913 13.9162 26.4543 13.5179 26.1922 13.2968L15.5672 4.33171C15.0431 3.88943 14.2867 3.88943 13.7613 4.33171L3.13669 13.2957ZM15.6489 18.7178C15.5663 18.5602 15.3987 18.4112 15.2683 18.278C14.7429 17.7417 14.7429 16.8669 15.2683 16.3293L16.7212 14.8461C17.2465 14.3098 18.1034 14.3098 18.63 14.8461L18.8622 15.0832C19.3672 15.5987 20.2253 15.2371 20.2253 14.5065C20.2253 14.0667 20.2037 13.7514 20.4862 13.3593L14.6676 8.45044L5.59012 16.1069V27.3151C5.59012 27.6389 5.84862 27.9028 6.16576 27.9028H11.3238V19.2542C11.3238 18.9598 11.5596 18.7179 11.8492 18.7179L15.6489 18.7178ZM22.5998 17.8394C20.1704 17.8394 18.1994 19.8504 18.1994 22.3316C18.1994 24.8117 20.1693 26.8238 22.5998 26.8238C25.0292 26.8238 27.0002 24.8129 27.0002 22.3316C27.0002 19.8515 25.0291 17.8394 22.5998 17.8394Z" fill="#1E1E1E"/>
</svg>
