<svg width="73" height="72" viewBox="0 0 73 72" fill="none" xmlns="http://www.w3.org/2000/svg">
<path d="M61.8191 53.725L52.919 44.6968C51.4409 43.1966 49.0539 43.1474 47.4994 44.5342L44.5088 41.5018C45.3538 40.5189 46.1101 39.4473 46.7506 38.2894C48.842 34.5179 49.5637 30.2514 48.8888 26.0608L51.2167 23.9645C51.7759 24.2699 52.4065 24.4572 53.0864 24.4572C55.2591 24.4572 57.0279 22.6884 57.0279 20.5157C57.0279 18.343 55.2591 16.5742 53.0864 16.5742C50.9137 16.5742 49.1449 18.343 49.1449 20.5157C49.1449 21.0503 49.2533 21.5577 49.4479 22.0208L48.1842 23.1589C46.6889 18.5622 43.5776 14.7513 39.3282 12.3965C34.8793 9.93062 29.7357 9.34438 24.8457 10.746C19.9558 12.1477 15.9033 15.3723 13.4375 19.8215C10.9716 24.2704 10.3854 29.4141 11.787 34.304C13.1888 39.1939 16.4133 43.2464 20.8625 45.7122C23.7275 47.3011 26.8806 48.1091 30.0685 48.1091C31.8323 48.1091 33.6035 47.8628 35.3451 47.3627C38.0943 46.5744 40.5651 45.1924 42.6517 43.3571L45.63 46.3773C44.2233 47.912 44.2406 50.3015 45.7186 51.7993L54.6188 60.8249C55.3578 61.5738 56.3456 61.9926 57.3975 62H57.427C58.469 62 59.4519 61.5985 60.1934 60.8644L61.7848 59.2951C62.5361 58.5561 62.9525 57.5683 62.9598 56.5139C62.9672 55.462 62.5632 54.4693 61.8242 53.7204L61.8191 53.725ZM53.0836 19.2028C53.8078 19.2028 54.3965 19.7916 54.3965 20.5158C54.3965 21.24 53.8078 21.8288 53.0836 21.8288C52.3593 21.8288 51.7706 21.24 51.7706 20.5158C51.7706 19.7916 52.3593 19.2028 53.0836 19.2028ZM34.6155 44.8368C25.9146 47.3322 16.8051 42.2823 14.3071 33.5787C11.8117 24.8754 16.8617 15.7684 25.5652 13.2704C27.0704 12.8393 28.5903 12.6324 30.0831 12.6324C37.2219 12.6324 43.8095 17.3326 45.8711 24.5281C45.9253 24.7227 45.9598 24.9173 46.0066 25.1119L41.8114 28.8883C41.2522 28.5829 40.6216 28.3956 39.9417 28.3956C39.4268 28.3956 38.9416 28.5016 38.4907 28.6814L34.1674 23.7447C34.4877 23.1757 34.6872 22.5278 34.6872 21.8257C34.6872 19.653 32.9185 17.8842 30.7457 17.8842C28.573 17.8842 26.8043 19.653 26.8043 21.8257C26.8043 22.4317 26.9521 23.0008 27.2009 23.5132L21.9267 28.7873C21.4118 28.541 20.8453 28.3907 20.2392 28.3907C18.0665 28.3907 16.2978 30.1595 16.2978 32.3322C16.2978 34.5049 18.0665 36.2737 20.2392 36.2737C22.412 36.2737 24.1807 34.5049 24.1807 32.3322C24.1807 31.7262 24.0329 31.1571 23.7841 30.6447L29.0583 25.3706C29.5731 25.6169 30.1397 25.7672 30.7457 25.7672C31.2606 25.7672 31.7459 25.6612 32.1967 25.4814L36.52 30.4181C36.1998 30.9871 36.0002 31.635 36.0002 32.3371C36.0002 34.5098 37.769 36.2786 39.9417 36.2786C42.1144 36.2786 43.8831 34.5098 43.8831 32.3371C43.8831 31.8025 43.7748 31.2951 43.5802 30.832L46.4697 28.2281C46.8442 35.6753 42.0824 42.6911 34.6106 44.834L34.6155 44.8368ZM39.9463 31.0272C40.6705 31.0272 41.2592 31.616 41.2592 32.3402C41.2592 33.0644 40.6705 33.6532 39.9463 33.6532C39.222 33.6532 38.6333 33.0644 38.6333 32.3402C38.6333 31.616 39.222 31.0272 39.9463 31.0272ZM29.4349 21.8288C29.4349 21.1046 30.0236 20.5158 30.7478 20.5158C31.4721 20.5158 32.0608 21.1045 32.0608 21.8288C32.0608 22.553 31.4721 23.1418 30.7478 23.1418C30.0236 23.1418 29.4349 22.553 29.4349 21.8288ZM21.5519 32.3402C21.5519 33.0644 20.9632 33.6532 20.239 33.6532C19.5147 33.6532 18.926 33.0644 18.926 32.3402C18.926 31.616 19.5147 31.0272 20.239 31.0272C20.9632 31.0272 21.5519 31.616 21.5519 32.3402ZM59.9342 57.4249L58.3429 58.9941C58.0965 59.238 57.7664 59.3735 57.4216 59.3735H57.4117C57.0619 59.371 56.7318 59.2331 56.4854 58.9818L47.5853 49.9562C47.0778 49.4389 47.0828 48.6062 47.5976 48.0963L49.189 46.5296C49.4427 46.2783 49.7777 46.1502 50.1103 46.1502C50.4502 46.1502 50.7901 46.2808 51.0464 46.5394L59.9465 55.5676C60.1929 55.8164 60.3283 56.1465 60.3259 56.4988C60.3234 56.8486 60.1855 57.1785 59.9342 57.4249Z" fill="black"/>
</svg>
