<svg width="72" height="72" viewBox="0 0 72 72" fill="none" xmlns="http://www.w3.org/2000/svg">
<path fill-rule="evenodd" clip-rule="evenodd" d="M31 4C30.5487 4 30.0975 4.16529 29.7409 4.494L5.59909 26.7797C5.0364 27.2979 4.84883 28.1057 5.12739 28.817C5.40595 29.5301 6.09307 30 6.85818 30H10.5723V46.7143C10.5723 51.8419 14.7303 56 19.8576 56H42.1424C47.2697 56 51.4277 51.8419 51.4277 46.7143V30H55.1418C55.9069 30 56.594 29.5301 56.8726 28.817C57.1512 28.1057 56.9636 27.2979 56.4009 26.7797L32.2591 4.494C31.9025 4.16529 31.4513 4 31 4ZM31 8.38471L50.3896 26.2857H49.5706C48.5455 26.2857 47.7136 27.1177 47.7136 28.1429V46.7143C47.7136 49.7916 45.2195 52.2857 42.1424 52.2857H37.964C38.1794 51.9997 38.2221 51.944 38.4283 51.6691C39.6335 50.0609 40.2853 48.1071 40.2853 46.0977V42.6806C42.4488 41.9154 43.9994 39.8521 43.9994 37.4286C43.9994 34.3531 41.5036 31.8571 38.4283 31.8571C35.353 31.8571 32.8571 34.3531 32.8571 37.4286C32.8571 39.8521 34.4077 41.9154 36.5712 42.6806V46.0977C36.5712 47.303 36.1793 48.473 35.457 49.4387L33.3213 52.2857H25.4288V33.3949C27.5923 32.6297 29.1429 30.5664 29.1429 28.1429C29.1429 25.0674 26.647 22.5714 23.5717 22.5714C20.4964 22.5714 18.0006 25.0674 18.0006 28.1429C18.0006 30.5664 19.5512 32.6297 21.7147 33.3949V52.2857H19.8576C16.7805 52.2857 14.2864 49.7916 14.2864 46.7143V28.1429C14.2864 27.1177 13.4545 26.2857 12.4294 26.2857H11.6104L31 8.38471ZM23.5717 26.2857C24.5968 26.2857 25.4288 27.1177 25.4288 28.1429C25.4288 29.168 24.5968 30 23.5717 30C22.5466 30 21.7147 29.168 21.7147 28.1429C21.7147 27.1177 22.5466 26.2857 23.5717 26.2857ZM38.4283 35.5714C39.4534 35.5714 40.2853 36.4034 40.2853 37.4286C40.2853 38.4537 39.4534 39.2857 38.4283 39.2857C37.4032 39.2857 36.5712 38.4537 36.5712 37.4286C36.5712 36.4034 37.4032 35.5714 38.4283 35.5714Z" fill="black"/>
</svg>
