<svg width="34" height="34" viewBox="0 0 34 34" fill="none" xmlns="http://www.w3.org/2000/svg">
<path d="M15.7422 2.31152C15.7422 2.31152 15.7077 12.8168 18.2245 15.4015C20.809 18.0192 31.4844 18.0869 31.4844 18.0869C31.4844 18.0869 20.8091 17.9846 18.2245 20.5692C15.6399 23.1537 15.7422 33.8291 15.7422 33.8291C15.7422 33.8291 15.8445 23.1538 13.2599 20.5692C10.6754 17.9846 0 18.0524 0 18.0524C0 18.0524 10.6753 17.9847 13.2599 15.367C15.7754 12.817 15.7422 2.31152 15.7422 2.31152Z" fill="#1E1E1E"/>
<path d="M26.5881 0C26.5881 0 26.5536 4.92998 27.7781 6.15465C29.0026 7.37919 34.0004 7.41238 34.0004 7.41238C34.0004 7.41238 29.0028 7.37784 27.7781 8.56783C26.5535 9.79236 26.5881 14.7901 26.5881 14.7901C26.5881 14.7901 26.6226 9.7925 25.3981 8.56783C24.1736 7.34329 19.1758 7.37783 19.1758 7.37783C19.1758 7.37783 24.1734 7.3433 25.3981 6.12011C26.6226 4.93011 26.5881 0 26.5881 0Z" fill="#1E1E1E"/>
<path d="M6.59598 21.1826C6.59598 21.1826 6.59598 24.3449 7.34371 25.1273C8.12598 25.9095 11.356 25.9427 11.356 25.9427C11.356 25.9427 8.12605 25.9082 7.34371 26.6905C6.56144 27.4727 6.59598 30.7028 6.59598 30.7028C6.59598 30.7028 6.63051 27.4728 5.84826 26.6905C5.066 25.9081 1.83594 25.9427 1.83594 25.9427C1.83594 25.9427 5.06592 25.9082 5.84826 25.1273C6.59598 24.3782 6.59598 21.1826 6.59598 21.1826Z" fill="#1E1E1E"/>
</svg>
