<svg width="28" height="16" viewBox="0 0 28 16" fill="none" xmlns="http://www.w3.org/2000/svg">
<path d="M3.10297 15.7913C2.38732 15.7913 1.78158 15.5434 1.28574 15.0476C0.789909 14.5518 0.541992 13.9445 0.541992 13.2258V2.77359C0.541992 2.05487 0.789909 1.44759 1.28574 0.951758C1.78158 0.455925 2.38732 0.208008 3.10297 0.208008H7.27116V7.45461H9.39616V0.208008H12.9378V7.45461H15.0628V0.208008H18.6045V7.45461H20.7295V0.208008H24.8977C25.6133 0.208008 26.2191 0.455925 26.7149 0.951758C27.2107 1.44759 27.4587 2.05487 27.4587 2.77359V13.2258C27.4587 13.9445 27.2107 14.5518 26.7149 15.0476C26.2191 15.5434 25.6133 15.7913 24.8977 15.7913H3.10297Z" fill="#1C1B1F"/>
</svg>
