<svg width="20" height="20" viewBox="0 0 20 20" fill="none" xmlns="http://www.w3.org/2000/svg">
<path d="M7.75 13.7846L14.0385 9.74609L7.75 5.70759V13.7846ZM10.0017 19.2461C8.68775 19.2461 7.45267 18.9968 6.2965 18.4981C5.14033 17.9994 4.13467 17.3227 3.2795 16.4678C2.42433 15.613 1.74725 14.6078 1.24825 13.4521C0.749417 12.2964 0.5 11.0617 0.5 9.74784C0.5 8.43384 0.749333 7.19876 1.248 6.04259C1.74667 4.88643 2.42342 3.88076 3.27825 3.02559C4.13308 2.17043 5.13833 1.49334 6.294 0.994344C7.44967 0.49551 8.68442 0.246094 9.99825 0.246094C11.3123 0.246094 12.5473 0.495427 13.7035 0.994093C14.8597 1.49276 15.8653 2.16951 16.7205 3.02434C17.5757 3.87918 18.2528 4.88443 18.7518 6.04009C19.2506 7.19576 19.5 8.43051 19.5 9.74434C19.5 11.0583 19.2507 12.2934 18.752 13.4496C18.2533 14.6058 17.5766 15.6114 16.7218 16.4666C15.8669 17.3218 14.8617 17.9988 13.706 18.4978C12.5503 18.9967 11.3156 19.2461 10.0017 19.2461ZM10 17.7461C12.2333 17.7461 14.125 16.9711 15.675 15.4211C17.225 13.8711 18 11.9794 18 9.74609C18 7.51276 17.225 5.62109 15.675 4.07109C14.125 2.52109 12.2333 1.74609 10 1.74609C7.76667 1.74609 5.875 2.52109 4.325 4.07109C2.775 5.62109 2 7.51276 2 9.74609C2 11.9794 2.775 13.8711 4.325 15.4211C5.875 16.9711 7.76667 17.7461 10 17.7461Z" fill="#1E1E1E"/>
</svg>
